<?xml version="1.0" encoding="UTF-8"?>
<svg id="Layer_2" data-name="Layer 2" xmlns="http://www.w3.org/2000/svg" viewBox="0 0 2081.14 440.18">
  <defs>
    <style>
      .cls-1 {
        fill: #000;
        stroke-width: 0px;
      }
    </style>
  </defs>
  <rect id="Underline" class="cls-1" x="44.69" y="330.71" width="745.75" height="49"/>
  <polyline id="Z" class="cls-1" points="81.44 110.7 81.44 159.7 191.7 159.7 44.69 306.7 277.44 306.7 277.44 257.7 167.23 257.7 167.23 257.7 314.23 110.7"/>
  <polyline id="I" class="cls-1" points="350.44 110.7 350.44 306.7 301.44 306.7 301.44 159.7"/>
  <polygon id="M" class="cls-1" points="472.46 208.68 374.48 110.7 374.48 306.7 423.48 306.7 423.48 233.23 472.46 282.22 521.44 233.23 521.44 306.7 570.44 306.7 570.44 110.7 472.46 208.68"/>
  <path id="O" class="cls-1" d="M594.44,110.7v196.03l196-.03V110.73l-196-.03ZM643.44,257.7v-98h98v98h-98Z"/>
  <polyline id="N" class="cls-1" points="1010.45 110.7 961.45 110.7 961.45 220.96 814.44 73.95 814.44 306.7 863.44 306.7 863.44 196.49 863.44 196.49 1010.45 343.49"/>
  <g id="i">
    <polygon class="cls-1" points="1034.44 110.7 1034.44 198.22 1083.44 149.22 1083.44 110.7 1034.44 110.7"/>
    <polygon class="cls-1" points="1034.44 231.36 1034.44 379.63 1083.44 330.63 1083.44 182.37 1034.44 231.36"/>
  </g>
  <polygon id="T" class="cls-1" points="1278.39 36.71 1034.44 36.71 985.44 85.7 1107.42 85.7 1107.42 306.7 1156.42 257.7 1156.42 85.7 1229.39 85.7 1278.39 36.71"/>
  <polygon id="R" class="cls-1" points="1400.47 329.94 1302.93 232.4 1375.62 159.71 1375.62 110.73 1180.39 110.7 1180.39 306.73 1229.39 306.72 1229.39 257.7 1229.39 257.7 1229.39 159.7 1229.39 159.7 1229.39 159.69 1302.1 159.7 1229.39 232.4 1266.16 269.17 1400.47 403.48 1400.47 329.94"/>
  <path id="O-2" data-name="O" class="cls-1" d="M1400.44,110.7v183.44l12.6,12.6,183.41-.03V110.73l-196-.03ZM1547.45,257.7h-98v-98h98v98Z"/>
  <polygon id="M-2" data-name="M" class="cls-1" points="1718.42 208.68 1620.44 110.7 1620.44 306.7 1669.44 306.7 1669.44 233.23 1718.42 282.22 1767.4 233.23 1767.4 306.7 1816.4 306.7 1816.4 110.7 1718.42 208.68"/>
  <g id="E">
    <rect class="cls-1" x="1840.45" y="110.7" width="196" height="49"/>
    <rect class="cls-1" x="1840.45" y="257.7" width="196" height="49"/>
    <rect class="cls-1" x="1840.45" y="184.2" width="196" height="49"/>
  </g>
</svg>